<mxfile host="app.diagrams.net" modified="2021-07-19T19:28:16.773Z" agent="5.0 (Windows NT 10.0; Win64; x64) AppleWebKit/537.36 (KHTML, like Gecko) Chrome/91.0.4472.124 Safari/537.36 OPR/77.0.4054.203" etag="WBlesuEdOIlP8bV2MWJd" version="14.9.0" type="github">
  <diagram id="F5fDT9RWWXT5eyaNR9aA" name="UI">
    <mxGraphModel dx="1382" dy="764" grid="1" gridSize="10" guides="1" tooltips="1" connect="1" arrows="1" fold="1" page="1" pageScale="1" pageWidth="827" pageHeight="1169" math="0" shadow="0">
      <root>
        <mxCell id="0" />
        <mxCell id="1" parent="0" />
        <mxCell id="4cQQ3AmGW_2L6S3uU12_-1" value="IObserser" style="swimlane;fontStyle=1;align=center;verticalAlign=top;childLayout=stackLayout;horizontal=1;startSize=26;horizontalStack=0;resizeParent=1;resizeParentMax=0;resizeLast=0;collapsible=1;marginBottom=0;" parent="1" vertex="1">
          <mxGeometry x="40" y="30" width="210" height="82" as="geometry" />
        </mxCell>
        <mxCell id="4cQQ3AmGW_2L6S3uU12_-4" value="+ ~IObserver&#xa;+ IObserver&#xa;+ Update(Message&amp;, int&amp;): void" style="text;strokeColor=none;fillColor=none;align=left;verticalAlign=top;spacingLeft=4;spacingRight=4;overflow=hidden;rotatable=0;points=[[0,0.5],[1,0.5]];portConstraint=eastwest;" parent="4cQQ3AmGW_2L6S3uU12_-1" vertex="1">
          <mxGeometry y="26" width="210" height="56" as="geometry" />
        </mxCell>
        <mxCell id="4cQQ3AmGW_2L6S3uU12_-5" value="ISubect" style="swimlane;fontStyle=1;align=center;verticalAlign=top;childLayout=stackLayout;horizontal=1;startSize=26;horizontalStack=0;resizeParent=1;resizeParentMax=0;resizeLast=0;collapsible=1;marginBottom=0;" parent="1" vertex="1">
          <mxGeometry x="350" y="30" width="250" height="150" as="geometry" />
        </mxCell>
        <mxCell id="4cQQ3AmGW_2L6S3uU12_-6" value="- observers: vector&lt;IObserver*&gt;" style="text;strokeColor=none;fillColor=none;align=left;verticalAlign=top;spacingLeft=4;spacingRight=4;overflow=hidden;rotatable=0;points=[[0,0.5],[1,0.5]];portConstraint=eastwest;" parent="4cQQ3AmGW_2L6S3uU12_-5" vertex="1">
          <mxGeometry y="26" width="250" height="26" as="geometry" />
        </mxCell>
        <mxCell id="4cQQ3AmGW_2L6S3uU12_-7" value="" style="line;strokeWidth=1;fillColor=none;align=left;verticalAlign=middle;spacingTop=-1;spacingLeft=3;spacingRight=3;rotatable=0;labelPosition=right;points=[];portConstraint=eastwest;" parent="4cQQ3AmGW_2L6S3uU12_-5" vertex="1">
          <mxGeometry y="52" width="250" height="8" as="geometry" />
        </mxCell>
        <mxCell id="4cQQ3AmGW_2L6S3uU12_-8" value="+ ISubject&#xa;+ ~ISubject&#xa;+ AttachObserver: void&#xa;+ DetachObserver: void&#xa;+ Notify(Message msg, int param): void" style="text;strokeColor=none;fillColor=none;align=left;verticalAlign=top;spacingLeft=4;spacingRight=4;overflow=hidden;rotatable=0;points=[[0,0.5],[1,0.5]];portConstraint=eastwest;" parent="4cQQ3AmGW_2L6S3uU12_-5" vertex="1">
          <mxGeometry y="60" width="250" height="90" as="geometry" />
        </mxCell>
      </root>
    </mxGraphModel>
  </diagram>
</mxfile>
